name analog
datacolumns 19
datarows 42
range 0.0 0.0205
endheader
time	ground_force_vx	ground_force_vy	ground_force_vz	ground_force_px	ground_force_py	ground_force_pz	l_ground_force_vx	l_ground_force_vy	l_ground_force_vz	l_ground_force_px	l_ground_force_py	l_ground_force_pz	ground_torque_x	ground_torque_y	ground_torque_z	l_ground_torque_x	l_ground_torque_y	l_ground_torque_z
0.0	-0.0	-0.0	-0.0	4.34355354309082	-1.6905171871185305	-725.078369140625	-11.119306564331056	-3.1519083976745605	-37.23934173583984	-34.730995178222656	16.039108276367188	76.27787017822266	-0.0	-0.0	-0.0	16991.794921875	4786.39892578125	-5546.58984375
0.0005	-0.0	-0.0	-0.0	4.137521743774414	-2.0469257831573486	-724.2503051757812	-11.413195610046388	-3.3562240600585938	-37.926570892333984	-35.1262321472168	16.101163864135742	75.09049224853516	-0.0	-0.0	-0.0	17222.2890625	4575.857421875	-5586.73779296875
0.001	-0.0	-0.0	-0.0	4.666557312011719	-2.615553855895996	-725.6754760742188	-11.238625526428224	-3.265026092529297	-37.82854843139648	-34.68239974975586	16.280988693237305	76.1566162109375	-0.0	-0.0	-0.0	17068.83984375	4643.68212890625	-5625.5361328125
0.0015	-0.0	-0.0	-0.0	4.608123779296875	-3.085514068603516	-726.7222900390625	-11.76206398010254	-3.2315921783447266	-37.72001266479492	-35.15361404418945	15.779454231262209	75.33306884765625	-0.0	-0.0	-0.0	16930.599609375	4712.97216796875	-5704.681640625
0.002	-0.0	-0.0	-0.0	4.721415519714356	-3.743476867675781	-727.1841430664062	-11.590518951416016	-3.2100398540496826	-37.84086608886719	-34.86878967285156	16.284503936767578	74.38743591308594	-0.0	-0.0	-0.0	16997.822265625	4778.72119140625	-5694.32421875
0.0025	-0.0	-0.0	-0.0	5.5549821853637695	-4.134349822998047	-728.7325439453125	-11.880881309509276	-3.267902374267578	-38.07004928588867	-34.7296028137207	16.429370880126953	74.84500885009766	-0.0	-0.0	-0.0	16844.099609375	4650.552734375	-5675.111328125
0.003	-0.0	-0.0	-0.0	5.966431617736816	-4.902172088623047	-729.54736328125	-11.737223625183104	-3.414024829864502	-37.14353561401367	-34.95101547241211	16.257104873657227	75.4547119140625	-0.0	-0.0	-0.0	16787.923828125	4658.35693359375	-5762.94970703125
0.0035	-0.0	-0.0	-0.0	6.241086006164551	-5.436954498291016	-731.3131103515625	-11.59377384185791	-3.2067999839782715	-37.82914733886719	-34.884849548339844	15.819254875183104	76.59868621826172	-0.0	-0.0	-0.0	16622.15234375	4548.04443359375	-5644.1083984375
0.004	-0.0	-0.0	-0.0	6.772473335266113	-5.859161853790283	-732.3576049804688	-11.853062629699709	-3.1795806884765625	-37.23830032348633	-34.799346923828125	16.05004119873047	76.1725845336914	-0.0	-0.0	-0.0	16513.685546875	4726.025390625	-5793.7255859375
0.0045000000000000005	-0.0	-0.0	-0.0	7.641075134277344	-6.149997711181641	-731.8963012695312	-11.621112823486328	-2.941685676574707	-36.41878128051758	-34.97407913208008	16.347288131713867	75.24262237548828	-0.0	-0.0	-0.0	16276.513671875	4640.15234375	-5744.45751953125
0.005	-0.0	-0.0	-0.0	8.176319122314453	-6.475498676300049	-733.6776123046875	-11.5975923538208	-3.410286426544189	-36.5683479309082	-35.00949478149414	16.43303108215332	77.05366516113281	-0.0	-0.0	-0.0	16408.98828125	4757.82275390625	-5656.78857421875
0.0055	-0.0	-0.0	-0.0	8.676410675048828	-6.680736541748047	-733.0034790039062	-11.910577774047852	-2.975980758666992	-36.21993255615234	-34.61607360839844	16.046045303344727	74.8583984375	-0.0	-0.0	-0.0	16192.1884765625	4530.376953125	-5733.134765625
0.006	-0.0	-0.0	-0.0	8.916890144348145	-6.603963375091553	-732.7416381835938	-11.736824035644531	-3.352386236190796	-35.73490524291992	-34.96932601928711	16.10007095336914	76.26191711425781	-0.0	-0.0	-0.0	16313.234375	4423.59130859375	-5609.25146484375
0.006500000000000001	-0.0	-0.0	-0.0	9.692808151245115	-6.475409984588623	-733.5713500976562	-11.76377010345459	-3.290879249572754	-35.962615966796875	-35.24663543701172	16.16756820678711	74.64761352539062	-0.0	-0.0	-0.0	16307.037109375	4480.357421875	-5569.30517578125
0.007	-0.0	-0.0	-0.0	10.549386978149414	-6.350784778594971	-733.5546875	-11.621112823486328	-3.006927490234375	-35.94684219360352	-34.86206817626953	16.162994384765625	76.40267181396484	-0.0	-0.0	-0.0	15992.9345703125	4526.22119140625	-5656.87060546875
0.0075	-0.0	-0.0	-0.0	10.896964073181152	-6.675933361053467	-732.830810546875	-11.701582908630373	-2.8303959369659424	-35.036949157714844	-34.91546630859375	16.072986602783203	75.7870864868164	-0.0	-0.0	-0.0	15824.42578125	4425.53662109375	-5754.89501953125
0.008	-0.0	-0.0	-0.0	11.807022094726562	-6.47980260848999	-732.1597900390625	-11.77175521850586	-3.029599189758301	-35.17538833618164	-34.82596206665039	16.432844161987305	75.43586730957031	-0.0	-0.0	-0.0	16039.7724609375	4567.7099609375	-5686.7275390625
0.0085	-0.0	-0.0	-0.0	12.868371963500977	-6.243731021881104	-732.5316772460938	-11.922547340393066	-2.9412028789520264	-35.38633728027344	-34.89371871948242	16.379417419433594	76.3841552734375	-0.0	-0.0	-0.0	15665.2861328125	4241.826171875	-5666.1279296875
0.009000000000000001	-0.0	-0.0	-0.0	13.728978157043455	-6.800476551055908	-732.6004638671875	-11.687604904174805	-2.945520162582397	-35.38648223876953	-34.86233901977539	16.07794761657715	75.66236877441406	-0.0	-0.0	-0.0	15814.2890625	4484.76123046875	-5763.88427734375
0.0095	-0.0	-0.0	-0.0	14.232782363891602	-6.537822723388672	-732.7432861328125	-11.740885734558104	-2.879234790802002	-35.142059326171875	-34.509639739990234	15.924625396728516	75.59833526611328	-0.0	-0.0	-0.0	15546.4130859375	4321.7783203125	-5731.24853515625
0.01	-0.0	-0.0	-0.0	15.134417533874512	-6.532967567443848	-734.2611083984375	-12.007055282592772	-2.8044652938842773	-33.90381622314453	-34.85724639892578	16.078065872192383	75.57850646972656	-0.0	-0.0	-0.0	15564.59765625	4268.91748046875	-5752.14208984375
0.0105	-0.0	-0.0	-0.0	15.985057830810549	-6.653401374816895	-734.4899291992188	-11.798534393310549	-3.303581714630127	-34.70705795288086	-34.704566955566406	16.1734619140625	76.44624328613281	-0.0	-0.0	-0.0	15655.37109375	4301.04541015625	-5824.95361328125
0.011	-0.0	-0.0	-0.0	16.373151779174805	-5.856277942657471	-735.6536865234375	-11.940031051635742	-2.919360399246216	-34.566009521484375	-35.18879318237305	15.90366554260254	74.62877655029297	-0.0	-0.0	-0.0	15657.2119140625	4214.58056640625	-5882.71337890625
0.0115	-0.0	-0.0	-0.0	16.86078643798828	-5.824906349182129	-734.8837890625	-11.944767951965332	-3.012600898742676	-34.33960723876953	-34.914974212646484	16.136390686035156	75.9298095703125	-0.0	-0.0	-0.0	15510.59765625	4234.693359375	-5875.55712890625
0.012	-0.0	-0.0	-0.0	16.803071975708008	-5.311083793640137	-734.8009643554688	-12.095891952514648	-3.24175763130188	-34.79226303100586	-34.88880157470703	16.226398468017578	76.60993957519531	-0.0	-0.0	-0.0	15667.8603515625	4534.533203125	-5806.015625
0.0125	-0.0	-0.0	-0.0	17.139198303222656	-5.756585121154785	-737.065185546875	-12.273351669311523	-3.044174671173096	-35.36737060546875	-34.53667068481445	16.040761947631836	76.52993774414062	-0.0	-0.0	-0.0	15750.2646484375	4405.14306640625	-5992.88232421875
0.013000000000000001	-0.0	-0.0	-0.0	17.228532791137695	-5.693450927734375	-736.1303100585938	-12.44051456451416	-3.2627856731414795	-34.09373092651367	-35.073486328125	15.93621826171875	75.90757751464844	-0.0	-0.0	-0.0	15547.75	4628.1982421875	-5881.43798828125
0.0135	-0.0	-0.0	-0.0	17.68414306640625	-5.169563293457031	-736.75537109375	-12.424761772155762	-3.1795806884765625	-34.79188537597656	-34.836997985839844	15.866616249084473	74.67424774169922	-0.0	-0.0	-0.0	15625.265625	4331.49951171875	-6010.49755859375
0.014	-0.0	-0.0	-0.0	17.459308624267578	-5.451536178588867	-736.50537109375	-12.294076919555664	-3.3615646362304688	-34.11454772949219	-34.678070068359375	16.220508575439453	76.60888671875	-0.0	-0.0	-0.0	15638.8125	4526.74560546875	-6010.42578125
0.0145	-0.0	-0.0	-0.0	18.089569091796875	-5.143678665161133	-735.218017578125	-12.064666748046877	-3.2366600036621094	-35.44722366333008	-34.80540084838867	15.892605781555176	76.0317153930664	-0.0	-0.0	-0.0	15279.4462890625	4341.1298828125	-5944.025390625
0.015	-0.0	-0.0	-0.0	18.098020553588867	-5.054623603820801	-736.4824829101562	-12.038790702819824	-3.159335136413574	-34.23866653442383	-34.946388244628906	16.252445220947266	75.88230895996094	-0.0	-0.0	-0.0	15425.630859375	4445.189453125	-6039.8173828125
0.0155	-0.0	-0.0	-0.0	18.319881439208984	-4.933870315551758	-736.5604858398438	-12.17917823791504	-3.076828956604004	-34.543758392333984	-34.56288146972656	16.104564666748047	75.95551300048828	-0.0	-0.0	-0.0	15359.447265625	4574.5244140625	-6020.72509765625
0.016	-0.0	-0.0	-0.0	18.179203033447266	-5.131864547729492	-735.2186889648438	-12.43961238861084	-2.9772675037384038	-35.264312744140625	-34.70988464355469	16.08515167236328	77.45994567871094	-0.0	-0.0	-0.0	15311.8662109375	4145.66845703125	-6040.02490234375
0.0165	-0.0	-0.0	-0.0	18.211164474487305	-5.308752059936523	-735.8528442382812	-12.419509887695312	-3.393355131149292	-35.36549377441406	-34.98468399047852	15.905402183532717	75.22914123535156	-0.0	-0.0	-0.0	15652.1806640625	4150.53076171875	-5993.234375
0.017	-0.0	-0.0	-0.0	18.581375122070312	-5.48808479309082	-734.0338745117188	-12.382064819335938	-3.367983818054199	-34.364234924316406	-34.95279693603516	16.226715087890625	75.35482025146484	-0.0	-0.0	-0.0	15550.125	4381.1630859375	-5976.08349609375
0.0175	-0.0	-0.0	-0.0	19.31427764892578	-5.583411693572998	-733.57958984375	-12.502252578735352	-3.324802875518799	-35.46575927734375	-34.9970817565918	16.265575408935547	75.30320739746094	-0.0	-0.0	-0.0	15444.4296875	4316.583984375	-5999.87646484375
0.018000000000000002	-0.0	-0.0	-0.0	19.205730438232425	-6.022633075714111	-734.6898193359375	-12.191055297851562	-3.046504020690918	-34.0160026550293	-34.85003662109375	16.130054473876953	74.77914428710938	-0.0	-0.0	-0.0	15461.6025390625	4416.2294921875	-6020.6787109375
0.0185	-0.0	-0.0	-0.0	19.352169036865234	-5.978242874145508	-734.7147827148438	-12.039225578308104	-3.425381898880005	-35.264312744140625	-34.843055725097656	16.36760902404785	75.87801361083984	-0.0	-0.0	-0.0	15365.17578125	4366.79443359375	-6050.318359375
0.019	-0.0	-0.0	-0.0	19.862009048461918	-6.481199264526367	-734.513916015625	-12.28629207611084	-3.330946207046509	-34.64125442504883	-35.24663543701172	16.194534301757812	74.87882232666016	-0.0	-0.0	-0.0	15260.734375	4311.46875	-5963.56591796875
0.0195	-0.0	-0.0	-0.0	20.04708480834961	-6.58897066116333	-734.0608520507812	-11.950629234313965	-3.324671030044556	-35.039894104003906	-34.83149719238281	15.975218772888184	75.52592468261719	-0.0	-0.0	-0.0	15321.951171875	4355.06591796875	-5971.81591796875
0.02	-0.0	-0.0	-0.0	20.339996337890625	-6.945379257202148	-734.3148803710938	-12.026459693908691	-3.154439687728882	-34.59150314331055	-34.72785186767578	15.95699977874756	75.77775573730469	-0.0	-0.0	-0.0	15430.1982421875	4213.681640625	-5916.6103515625
0.0205	-0.0	-0.0	-0.0	20.671709060668945	-6.876850605010986	-733.273681640625	-12.00113296508789	-3.494678735733032	-33.096248626708984	-34.85657501220703	16.266626358032227	75.53976440429688	-0.0	-0.0	-0.0	15099.181640625	4231.26123046875	-5855.44189453125
